<svg xmlns="http://www.w3.org/2000/svg" viewBox="0 0 64 64" width="64" height="64" fill="none">
<rect x="1" y="1" width="62" height="62" rx="16" fill="#123D39"/><rect x="1.5" y="1.5" width="61" height="61" rx="15.5" stroke="#34635B"/>
<g transform="translate(6 6) scale(.8125)"><path d="M18 12H43C46.6 12 48.4 16.4 45.8 19L29 36H14C10.4 36 8.6 31.6 11.2 29L27 13.2C27.8 12.4 28.7 12 30 12Z" fill="#F4F3E9"/><path d="M35 28H50C53.6 28 55.4 32.4 52.8 35L37 50.8C36.2 51.6 35.3 52 34 52H21C17.4 52 15.6 47.6 18.2 45Z" fill="#9EDBBD"/></g></svg>
